<svg xmlns="http://www.w3.org/2000/svg" viewBox="0 0 473.95 88.41"><defs><style>.cls-1{fill:#191919;}.cls-2{fill:#01a48f;}.cls-3{fill:#fff;}.cls-4{fill:#e85127;}.cls-5{fill:#7db828;}.cls-6{fill:#319ed9;}.cls-7{fill:#fab70f;}</style></defs><g id="Layer_2" data-name="Layer 2"><g id="HomeDesktop"><g id="Logos"><path class="cls-1" d="M21.7,0H474L452.17,88.41H0Z"/><path class="cls-2" d="M71.81,57.57H69.42v2.21h2.67v.67H68.63V54.3H72V55H69.42v1.94h2.39Z"/><path class="cls-2" d="M77.88,54.38a12,12,0,0,1,1.69-.12,3.53,3.53,0,0,1,2.49.76,2.85,2.85,0,0,1,.86,2.21A3.28,3.28,0,0,1,82,59.62a3.81,3.81,0,0,1-2.72.88c-.56,0-1,0-1.44-.07Zm.8,5.44a6,6,0,0,0,.8,0,2.36,2.36,0,0,0,2.61-2.6,2.19,2.19,0,0,0-2.48-2.37,4.24,4.24,0,0,0-.93.08Z"/><path class="cls-2" d="M89.51,54.3v3.64c0,1.38.61,2,1.43,2s1.5-.6,1.5-2V54.3h.8v3.58c0,1.89-1,2.67-2.32,2.67s-2.21-.72-2.21-2.63V54.3Z"/><path class="cls-2" d="M103.68,60.24a3.85,3.85,0,0,1-1.62.3,2.87,2.87,0,0,1-3-3.11,3.06,3.06,0,0,1,3.21-3.23,3.29,3.29,0,0,1,1.46.28l-.19.64a3,3,0,0,0-1.24-.25,2.28,2.28,0,0,0-2.4,2.53,2.23,2.23,0,0,0,2.36,2.47,3.26,3.26,0,0,0,1.29-.25Z"/><path class="cls-2" d="M110.47,58.51l-.64,1.94H109l2.09-6.15h1l2.1,6.15h-.85l-.65-1.94Zm2-.62-.6-1.76c-.14-.41-.23-.77-.32-1.13h0c-.09.37-.19.74-.31,1.12l-.6,1.77Z"/><path class="cls-2" d="M124,60.24a3.87,3.87,0,0,1-1.63.3,2.87,2.87,0,0,1-3-3.11,3.06,3.06,0,0,1,3.21-3.23,3.29,3.29,0,0,1,1.46.28l-.2.64a3,3,0,0,0-1.24-.25,2.28,2.28,0,0,0-2.39,2.53,2.23,2.23,0,0,0,2.36,2.47,3.26,3.26,0,0,0,1.29-.25Z"/><path class="cls-2" d="M130.53,54.3v6.15h-.79V54.3Z"/><path class="cls-2" d="M141.93,57.31c0,2.11-1.28,3.24-2.85,3.24a2.82,2.82,0,0,1-2.76-3.12,2.92,2.92,0,0,1,2.85-3.23C140.85,54.2,141.93,55.49,141.93,57.31Zm-4.76.1c0,1.31.71,2.49,2,2.49s2-1.16,2-2.55c0-1.22-.64-2.5-2-2.5S137.17,56.06,137.17,57.41Zm3.29-4.52L139.3,54h-.66l.85-1.06Z"/><path class="cls-2" d="M147.73,60.45V54.3h.87l2,3.11a17.91,17.91,0,0,1,1.1,2h0a25.13,25.13,0,0,1-.09-2.53V54.3h.74v6.15h-.8l-1.95-3.12a20.47,20.47,0,0,1-1.15-2h0c.05.77.07,1.51.07,2.53v2.63Z"/><path class="cls-3" d="M64.62,41.33a5.54,5.54,0,1,1-7.85-7.83,5.31,5.31,0,0,1,3.92-1.64,5.39,5.39,0,0,1,3.92,1.64l2.61-2.61a9.85,9.85,0,0,0-3-2,9.23,9.23,0,0,0-12.84,8.5,9.27,9.27,0,0,0,9.26,9.25,9.06,9.06,0,0,0,3.59-.72,9.7,9.7,0,0,0,3-2Z"/><path class="cls-3" d="M68.57,28.2h6a6.69,6.69,0,0,1,4.76,1.88,5.38,5.38,0,0,1,1.78,4.21v.56a5.57,5.57,0,0,1-1.16,3.46,4.63,4.63,0,0,1-2.63,1.86l4.14,6.38H76.94l-4.68-7.16v7.16H68.59ZM74.87,37a2,2,0,0,0,1.68-.73,2.5,2.5,0,0,0,.73-1.91,2.29,2.29,0,0,0-.73-1.8,3.31,3.31,0,0,0-2.25-.74h-2V37Z"/><path class="cls-3" d="M83.12,28.23h3.67V46.55H83.12Z"/><polygon class="cls-3" points="88.39 28.23 88.39 31.89 92.97 31.89 92.97 46.55 96.64 46.55 96.64 31.89 101.22 31.89 101.22 28.23 88.39 28.23"/><polygon class="cls-3" points="113.8 31.89 113.8 28.23 102.81 28.23 102.81 46.55 113.8 46.55 113.8 42.88 106.48 42.88 106.48 39.22 111.97 39.22 111.97 35.56 106.48 35.56 106.48 31.89 113.8 31.89"/><path class="cls-3" d="M115.49,28.2h6a6.69,6.69,0,0,1,4.76,1.88A5.37,5.37,0,0,1,128,34.29v.56a5.51,5.51,0,0,1-1.16,3.46,4.61,4.61,0,0,1-2.62,1.86l4.14,6.38h-4.48l-4.69-7.16v7.16H115.5Zm6.3,8.84a2,2,0,0,0,1.68-.73,2.54,2.54,0,0,0,.73-1.91,2.33,2.33,0,0,0-.73-1.8,3.31,3.31,0,0,0-2.25-.74h-2.06V37Z"/><polygon class="cls-3" points="128.53 28.23 128.53 31.89 133.11 31.89 133.11 46.55 136.78 46.55 136.78 31.89 141.36 31.89 141.36 28.23 128.53 28.23"/><polygon class="cls-3" points="153.94 31.89 153.94 28.23 142.95 28.23 142.95 46.55 153.94 46.55 153.94 42.88 146.62 42.88 146.62 39.22 152.11 39.22 152.11 35.56 146.62 35.56 146.62 31.89 153.94 31.89"/><path class="cls-3" d="M168.39,41.33a5.55,5.55,0,1,1-7.86-7.83,5.33,5.33,0,0,1,3.92-1.64,5.41,5.41,0,0,1,3.93,1.64L171,30.89a9.67,9.67,0,0,0-6.55-2.75,9.29,9.29,0,0,0-9.25,9.27A9.26,9.26,0,0,0,168,45.94a9.62,9.62,0,0,0,3-2Z"/><circle class="cls-3" cx="164.39" cy="37.35" r="2.79"/><polygon class="cls-3" points="298.25 53.92 298.25 38.7 298.13 38.7 292.02 53.92 289.58 53.92 283.38 38.7 283.27 38.7 283.27 53.92 280.03 53.92 280.03 34.14 284.99 34.14 290.87 48.83 296.92 34.14 301.69 34.14 301.69 53.92 298.25 53.92"/><path class="cls-3" d="M306.66,33.71a2.06,2.06,0,0,0-1.44.55,1.86,1.86,0,0,0-.6,1.39,1.77,1.77,0,0,0,.6,1.37,2.06,2.06,0,0,0,1.44.54,2.09,2.09,0,0,0,1.45-.54,1.78,1.78,0,0,0,.61-1.37,1.85,1.85,0,0,0-.59-1.37,2,2,0,0,0-1.47-.57m1.65,6h-3.37V53.92h3.37Z"/><path class="cls-3" d="M318.37,39.4a8.4,8.4,0,0,0-4.1,1,6.63,6.63,0,0,0-2.7,2.75,8.6,8.6,0,0,0-.93,4.07,7.49,7.49,0,0,0,.9,3.66,6.36,6.36,0,0,0,2.52,2.52,7.6,7.6,0,0,0,3.69.88,8.09,8.09,0,0,0,4.07-.94l.05,0V50.24l-.14.1a6.2,6.2,0,0,1-1.66.85,4.89,4.89,0,0,1-1.61.31,4.2,4.2,0,0,1-3.16-1.21,4.72,4.72,0,0,1-1.16-3.37,4.83,4.83,0,0,1,1.21-3.46,4.15,4.15,0,0,1,3.16-1.3,5.53,5.53,0,0,1,3.22,1.11l.14.1V40.15l-.05,0a5.53,5.53,0,0,0-1.56-.53,9.65,9.65,0,0,0-1.89-.2"/><path class="cls-3" d="M327.79,42.2V39.74h-3.37V53.92h3.37V46.67a5,5,0,0,1,.84-3,2.58,2.58,0,0,1,2.18-1.14,4,4,0,0,1,1,.15,2.39,2.39,0,0,1,.78.31l.14.1V39.72l-.05,0a3.36,3.36,0,0,0-1.32-.2,3.49,3.49,0,0,0-2.26.8,4.5,4.5,0,0,0-1.3,1.9Z"/><path class="cls-3" d="M340.57,39.4A7,7,0,0,0,333,47a6.77,6.77,0,0,0,7.26,7.26,7.33,7.33,0,0,0,5.47-2.06,7.56,7.56,0,0,0,2-5.5,7.36,7.36,0,0,0-1.9-5.35,7,7,0,0,0-5.25-2m-.15,12.1a3.65,3.65,0,0,1-2.91-1.2,5.11,5.11,0,0,1-1-3.41,5.26,5.26,0,0,1,1-3.5,3.57,3.57,0,0,1,2.87-1.23,3.51,3.51,0,0,1,2.8,1.18,5.17,5.17,0,0,1,1,3.47,5.5,5.5,0,0,1-1,3.51,3.44,3.44,0,0,1-2.83,1.18"/><path class="cls-3" d="M354.82,39.4a6.25,6.25,0,0,0-4,1.21,3.86,3.86,0,0,0-1.54,3.15,4.42,4.42,0,0,0,.33,1.76,3.59,3.59,0,0,0,1,1.31A8.75,8.75,0,0,0,352.75,48a16.32,16.32,0,0,1,1.73.8,2.4,2.4,0,0,1,.76.61,1.39,1.39,0,0,1,.21.81c0,.95-.72,1.41-2.21,1.41a6.14,6.14,0,0,1-1.86-.33,7.35,7.35,0,0,1-1.92-1l-.14-.1v3.25l.06,0a8.13,8.13,0,0,0,1.81.55,9.44,9.44,0,0,0,1.93.22,6.62,6.62,0,0,0,4.18-1.21,3.92,3.92,0,0,0,1.55-3.22,3.65,3.65,0,0,0-.84-2.44,7.27,7.27,0,0,0-2.84-1.79,7.25,7.25,0,0,1-2-1,1.46,1.46,0,0,1-.41-1.09,1.22,1.22,0,0,1,.52-1,2.33,2.33,0,0,1,1.45-.41,5.83,5.83,0,0,1,1.73.27A5.25,5.25,0,0,1,358,43l.14.09V40l0,0a7.69,7.69,0,0,0-1.54-.43,9.84,9.84,0,0,0-1.68-.17"/><path class="cls-3" d="M367.92,39.4a7,7,0,0,0-7.59,7.6,6.76,6.76,0,0,0,7.25,7.26,7.33,7.33,0,0,0,5.47-2.06,7.56,7.56,0,0,0,2-5.5,7.4,7.4,0,0,0-1.89-5.35,7,7,0,0,0-5.26-2m-.15,12.1a3.63,3.63,0,0,1-2.9-1.2,5.06,5.06,0,0,1-1.05-3.41,5.26,5.26,0,0,1,1.05-3.5,3.58,3.58,0,0,1,2.87-1.23,3.54,3.54,0,0,1,2.81,1.18,5.22,5.22,0,0,1,1,3.47,5.5,5.5,0,0,1-1,3.51,3.47,3.47,0,0,1-2.84,1.18"/><path class="cls-3" d="M393.06,42.46V39.74h-3.42V35.52l-.11,0-3.21,1-.06,0v3.2h-5.07V38a2.81,2.81,0,0,1,.56-1.89,2,2,0,0,1,1.57-.63,3.68,3.68,0,0,1,1.48.33l.13.06V33l-.06,0a5.78,5.78,0,0,0-1.9-.25,5.54,5.54,0,0,0-2.69.64,4.58,4.58,0,0,0-1.85,1.8,5.42,5.42,0,0,0-.65,2.65v2H375.4v2.72h2.38V53.92h3.41V42.46h5.07v7.29c0,3,1.43,4.51,4.25,4.51a7.44,7.44,0,0,0,1.45-.15,4,4,0,0,0,1.06-.34l0,0V51l-.14.09a2,2,0,0,1-.68.3,2.49,2.49,0,0,1-.68.11,1.82,1.82,0,0,1-1.45-.52,2.76,2.76,0,0,1-.47-1.82v-6.7Z"/><rect class="cls-4" x="236.63" y="27.53" width="15.87" height="15.69"/><rect class="cls-5" x="254.15" y="27.53" width="15.87" height="15.69"/><rect class="cls-6" x="236.63" y="44.86" width="15.87" height="15.69"/><rect class="cls-7" x="254.15" y="44.86" width="15.87" height="15.69"/><rect class="cls-3" x="201.85" y="29.1" width="0.87" height="29.88"/></g></g></g></svg>