<?xml version="1.0" encoding="utf-8"?>
<!-- Generator: Adobe Illustrator 25.2.1, SVG Export Plug-In . SVG Version: 6.00 Build 0)  -->
<svg version="1.1" xmlns="http://www.w3.org/2000/svg" xmlns:xlink="http://www.w3.org/1999/xlink" x="0px" y="0px"
	 viewBox="0 0 288.3 105.8" style="enable-background:new 0 0 288.3 105.8;" xml:space="preserve">
<style type="text/css">
	.st0{display:none;}
	.st1{display:inline;}
	.st2{fill:#FF096C;}
	.st3{fill:#FFFFFF;}
	.st4{fill:#22AAE4;}
	.st5{fill:#9269D3;}
	.st6{fill:#FCCC00;}
	.st7{fill:#34D0A1;}
	.st8{fill:#E85127;}
	.st9{fill:#7DB828;}
	.st10{fill:#319ED9;}
	.st11{fill:#FAB70F;}
	.st12{fill:#FBCC03;}
	.st13{fill:#9168D2;}
	.st14{fill:#23A9E4;}
	.st15{fill:#33D0A3;}
</style>
<g id="Layer_1" class="st0">
	<g id="Layer_2_1_" class="st1">
		<g id="HomeDesktop">
			<g id="Logo">
				<path class="st2" d="M54.8,41.6h204.8L256.5,54H51.7L54.8,41.6z"/>
				<path class="st3" d="M70.2,43.8h-6.2v8.1h-6.5V31.1h6.5v7.5h6.2v-7.5h6.5v20.7h-6.5V43.8z"/>
				<path class="st3" d="M92.9,48.7H86l-1,3.1h-6.8l7.6-20.7h7.5l7.6,20.7H94L92.9,48.7z M89.5,38.1l-1.9,5.8h3.8L89.5,38.1z"/>
				<path class="st3" d="M111.9,30.9c5.5,0,9.2,3.3,10,8.2h-6.8c-0.6-1.3-1.9-2.2-3.3-2.2c-2.2,0-3.5,1.8-3.5,4.5s1.3,4.5,3.5,4.5
					c1.4,0,2.7-0.8,3.3-2.2h6.9c-0.8,4.9-4.6,8.2-10,8.2c-6.3,0-10.2-4.4-10.2-10.5S105.6,30.9,111.9,30.9z"/>
				<path class="st3" d="M130.8,42.9v9h-6.5V31.1h6.5v8.7l5.9-8.7h7.3l-7.1,9.9l7.6,10.8h-7.7L130.8,42.9z"/>
				<path class="st3" d="M159.6,48.7h-6.9l-1,3.1h-6.8l7.6-20.7h7.5l7.6,20.7h-6.8L159.6,48.7z M156.2,38.1l-1.9,5.8h3.7L156.2,38.1
					z"/>
				<path class="st3" d="M167.8,31.1h17.4v5.2h-5.5v15.6h-6.5V36.3h-5.4V31.1z"/>
				<path class="st3" d="M199.7,43.8h-6.2v8.1H187V31.1h6.5v7.5h6.2v-7.5h6.5v20.7h-6.5V43.8z"/>
				<path class="st3" d="M219.2,52c-5.9,0-10.6-4.8-10.6-10.6c0-5.9,4.8-10.6,10.6-10.6c0,0,0,0,0,0c5.7-0.1,10.5,4.4,10.6,10.1
					c0,0.2,0,0.4,0,0.5c0.1,5.8-4.4,10.5-10.2,10.6C219.5,52.1,219.3,52.1,219.2,52z M219.2,46c2.6,0,4-1.8,4-4.6s-1.4-4.6-4-4.6
					s-4.1,1.8-4.1,4.6S216.5,46,219.2,46L219.2,46z"/>
				<path class="st3" d="M252,31.1v20.7h-6.5l-6.9-10.4v10.4h-6.5V31.1h6.5l6.9,10.6V31.1H252z"/>
				<path class="st3" d="M76.8,59.3h8l4.6,12.4l4.4-12.4h7.9V80h-6.5V69.7L92.1,80h-5.6l-3.2-10.3V80h-6.5V59.3z"/>
				<path class="st3" d="M104.7,59.3h6.5V80h-6.5V59.3z"/>
				<path class="st3" d="M123.7,59.1c5.5,0,9.2,3.3,10,8.2h-6.8c-0.6-1.3-1.9-2.2-3.3-2.2c-2.2,0-3.5,1.8-3.5,4.5s1.3,4.5,3.5,4.5
					c1.4,0,2.8-0.8,3.3-2.1h6.8c-0.9,4.9-4.6,8.2-10,8.2c-6.3,0-10.2-4.4-10.2-10.5S117.4,59.1,123.7,59.1z"/>
				<path class="st3" d="M145.8,59.3c5.2,0,7.9,3,7.9,6.8c0.1,2.8-1.8,5.3-4.5,6l4.5,7.9h-7.1l-3.9-7.4l0,0V80h-6.5V59.3H145.8z
					 M145.2,64.7h-2.6v3.5h2.6c1.2,0,1.9-0.5,1.9-1.8c0.1-0.9-0.6-1.7-1.6-1.8C145.4,64.7,145.3,64.7,145.2,64.7z"/>
				<path class="st3" d="M165.8,80.2c-5.9,0-10.6-4.7-10.7-10.6s4.7-10.6,10.6-10.7c5.9,0,10.6,4.7,10.7,10.6c0,0,0,0,0,0
					c0.1,5.8-4.5,10.5-10.2,10.6C166,80.2,165.9,80.2,165.8,80.2z M165.8,74.2c2.6,0,4-1.8,4-4.6s-1.4-4.6-4-4.6s-4.1,1.8-4.1,4.6
					S163.1,74.1,165.8,74.2L165.8,74.2z"/>
				<path class="st3" d="M186.9,80.2c-4.7,0-8.5-2.2-8.8-6.8h6.9c0.1,1.5,0.9,1.8,1.6,1.8s1.3-0.3,1.3-1c0-2.8-9.8-1.8-9.7-8.9
					c0-4.2,3.5-6.3,7.9-6.3c5,0,8.2,2.4,8.4,6.7h-7c-0.1-1.3-0.7-1.6-1.4-1.6c-0.5,0-0.9,0.4-0.9,0.9c0,0,0,0.1,0,0.1
					c0,2.6,9.6,2.2,9.6,8.5C194.8,77.4,191.9,80.2,186.9,80.2z"/>
				<path class="st3" d="M207.1,80.2c-5.9,0-10.6-4.7-10.7-10.6s4.7-10.6,10.6-10.7c5.9,0,10.6,4.7,10.7,10.6c0,0,0,0,0,0
					c0.1,5.8-4.5,10.5-10.3,10.6C207.4,80.2,207.2,80.2,207.1,80.2z M207.1,74.2c2.6,0,4-1.8,4-4.6s-1.4-4.6-4-4.6s-4.1,1.8-4.1,4.6
					S204.5,74.1,207.1,74.2L207.1,74.2z"/>
				<path class="st3" d="M220.1,59.3h14.6v5.1h-8.1v2.9h5.9v4.9h-5.9V80h-6.5L220.1,59.3z"/>
				<path class="st3" d="M235.7,59.3h17.4v5.1h-5.5V80h-6.5V64.4h-5.4V59.3z"/>
				<path class="st3" d="M190.1,100.6c4.1-3.1,8.5-6.7,8.5-9.8c0-0.9-0.4-1.5-1.1-1.5s-1.3,0.7-1.2,2.4h-6.3
					c0.2-5.7,3.9-7.9,7.9-7.9c5.3,0,7.2,3,7.2,6.4c0,4.2-3.2,7.8-6.6,9.9h6.7v5.2h-15.1V100.6z"/>
				<path class="st3" d="M215.6,83.9c6.2,0,8.8,4.4,8.8,10.8s-2.6,10.9-8.8,10.9s-8.8-4.4-8.8-10.9S209.4,83.9,215.6,83.9z
					 M215.6,90.1c-2.1,0-2.4,2-2.4,4.7s0.3,4.7,2.4,4.7s2.4-2,2.4-4.7S217.7,90.1,215.6,90.1z"/>
				<path class="st3" d="M226.1,100.6c4.1-3.1,8.5-6.7,8.5-9.8c0-0.9-0.4-1.5-1.1-1.5s-1.3,0.7-1.2,2.4H226c0.2-5.7,3.9-7.9,7.9-7.9
					c5.3,0,7.2,3,7.2,6.4c0,4.2-3.2,7.8-6.6,9.9h6.7v5.2h-15.1V100.6z"/>
				<path class="st3" d="M245.2,90.5h-3.1v-6.1h9.9v21.4h-6.8V90.5z"/>
				<path class="st3" d="M25.2,69.1h-9.7L0,53.8l15.5-15.3h9.7L9.6,53.8L25.2,69.1z"/>
				<path class="st3" d="M274.2,90l-15.4-15.1h9.6L283.7,90l-15.3,15.1h-9.6L274.2,90z"/>
				<rect x="262.2" y="31.5" class="st4" width="26.1" height="26.1"/>
				<rect x="245.2" class="st5" width="16.9" height="16.9"/>
				<rect x="220.1" y="10.2" class="st6" width="13.3" height="13.3"/>
				<rect x="50.2" y="83.9" class="st7" width="21.7" height="21.7"/>
				<path class="st3" d="M48.5,16h7.6L37.8,91.5h-7.6L48.5,16z"/>
			</g>
		</g>
	</g>
</g>
<g id="Layer_2">
	<g>
		<polygon class="st2" points="54.7,43.4 259.5,43.4 256.5,55.7 51.7,55.7 		"/>
		<g>
			<g>
				<g>
					<polygon class="st3" points="220.8,101 220.8,95.7 220.7,95.7 218.6,101 217.8,101 215.6,95.7 215.6,95.7 215.6,101 214.4,101 
						214.4,94.1 216.2,94.1 218.2,99.2 220.3,94.1 222,94.1 222,101 					"/>
					<path class="st3" d="M223.7,94c-0.2,0-0.4,0.1-0.5,0.2c-0.1,0.1-0.2,0.3-0.2,0.5c0,0.2,0.1,0.3,0.2,0.5
						c0.1,0.1,0.3,0.2,0.5,0.2c0.2,0,0.4-0.1,0.5-0.2c0.1-0.1,0.2-0.3,0.2-0.5c0-0.2-0.1-0.3-0.2-0.5C224.1,94.1,223.9,94,223.7,94
						 M224.3,96.1h-1.2v4.9h1.2V96.1z"/>
					<path class="st3" d="M227.8,96c-0.5,0-1,0.1-1.4,0.3c-0.4,0.2-0.7,0.5-0.9,1c-0.2,0.4-0.3,0.9-0.3,1.4c0,0.5,0.1,0.9,0.3,1.3
						c0.2,0.4,0.5,0.7,0.9,0.9c0.4,0.2,0.8,0.3,1.3,0.3c0.6,0,1-0.1,1.4-0.3l0,0v-1.1l0,0c-0.2,0.1-0.4,0.2-0.6,0.3
						c-0.2,0.1-0.4,0.1-0.6,0.1c-0.5,0-0.8-0.1-1.1-0.4c-0.3-0.3-0.4-0.7-0.4-1.2c0-0.5,0.1-0.9,0.4-1.2c0.3-0.3,0.6-0.4,1.1-0.4
						c0.4,0,0.8,0.1,1.1,0.4l0,0v-1.1l0,0c-0.1-0.1-0.3-0.1-0.5-0.2C228.2,96,228,96,227.8,96"/>
					<path class="st3" d="M231,96.9v-0.9h-1.2v4.9h1.2v-2.5c0-0.4,0.1-0.8,0.3-1c0.2-0.3,0.4-0.4,0.8-0.4c0.1,0,0.2,0,0.4,0.1
						c0.1,0,0.2,0.1,0.3,0.1l0,0v-1.2l0,0c-0.1,0-0.3-0.1-0.5-0.1c-0.3,0-0.6,0.1-0.8,0.3C231.3,96.4,231.1,96.7,231,96.9L231,96.9z
						"/>
					<path class="st3" d="M235.5,96c-0.8,0-1.5,0.2-1.9,0.7c-0.5,0.5-0.7,1.1-0.7,1.9c0,0.8,0.2,1.4,0.7,1.8
						c0.5,0.5,1.1,0.7,1.8,0.7c0.8,0,1.4-0.2,1.9-0.7c0.5-0.5,0.7-1.1,0.7-1.9c0-0.8-0.2-1.4-0.7-1.9C236.8,96.2,236.2,96,235.5,96
						 M235.4,100.2c-0.4,0-0.8-0.1-1-0.4c-0.2-0.3-0.4-0.7-0.4-1.2c0-0.5,0.1-0.9,0.4-1.2c0.2-0.3,0.6-0.4,1-0.4
						c0.4,0,0.7,0.1,1,0.4c0.2,0.3,0.4,0.7,0.4,1.2c0,0.5-0.1,0.9-0.3,1.2C236.2,100,235.8,100.2,235.4,100.2"/>
					<path class="st3" d="M240.4,96c-0.6,0-1,0.1-1.4,0.4c-0.4,0.3-0.5,0.6-0.5,1.1c0,0.2,0,0.4,0.1,0.6c0.1,0.2,0.2,0.3,0.4,0.5
						c0.2,0.1,0.4,0.3,0.7,0.4c0.3,0.1,0.5,0.2,0.6,0.3c0.1,0.1,0.2,0.1,0.3,0.2c0,0.1,0.1,0.2,0.1,0.3c0,0.3-0.3,0.5-0.8,0.5
						c-0.2,0-0.4,0-0.6-0.1c-0.2-0.1-0.5-0.2-0.7-0.3l0,0v1.1l0,0c0.2,0.1,0.4,0.1,0.6,0.2c0.2,0.1,0.5,0.1,0.7,0.1
						c0.6,0,1.1-0.1,1.5-0.4c0.4-0.3,0.5-0.7,0.5-1.1c0-0.3-0.1-0.6-0.3-0.8c-0.2-0.2-0.5-0.4-1-0.6c-0.4-0.1-0.6-0.3-0.7-0.4
						c-0.1-0.1-0.1-0.2-0.1-0.4c0-0.1,0.1-0.3,0.2-0.4c0.1-0.1,0.3-0.1,0.5-0.1c0.2,0,0.4,0,0.6,0.1c0.2,0.1,0.4,0.1,0.5,0.2l0,0
						v-1.1l0,0c-0.1-0.1-0.3-0.1-0.5-0.1C240.8,96,240.6,96,240.4,96"/>
					<path class="st3" d="M245,96c-0.8,0-1.5,0.2-1.9,0.7c-0.5,0.5-0.7,1.1-0.7,1.9c0,0.8,0.2,1.4,0.7,1.8c0.5,0.5,1.1,0.7,1.8,0.7
						c0.8,0,1.4-0.2,1.9-0.7c0.5-0.5,0.7-1.1,0.7-1.9c0-0.8-0.2-1.4-0.7-1.9C246.3,96.2,245.7,96,245,96 M244.9,100.2
						c-0.4,0-0.8-0.1-1-0.4c-0.2-0.3-0.4-0.7-0.4-1.2c0-0.5,0.1-0.9,0.4-1.2c0.2-0.3,0.6-0.4,1-0.4c0.4,0,0.7,0.1,1,0.4
						c0.2,0.3,0.4,0.7,0.4,1.2c0,0.5-0.1,0.9-0.3,1.2C245.7,100,245.3,100.2,244.9,100.2"/>
					<path class="st3" d="M253.7,97v-0.9h-1.2v-1.5l0,0l-1.1,0.3l0,0v1.1h-1.8v-0.6c0-0.3,0.1-0.5,0.2-0.7c0.1-0.1,0.3-0.2,0.5-0.2
						c0.2,0,0.3,0,0.5,0.1l0,0v-1l0,0c-0.2-0.1-0.4-0.1-0.7-0.1c-0.3,0-0.7,0.1-0.9,0.2c-0.3,0.1-0.5,0.4-0.6,0.6
						c-0.2,0.3-0.2,0.6-0.2,0.9v0.7h-0.8V97h0.8v4h1.2v-4h1.8v2.5c0,1,0.5,1.6,1.5,1.6c0.2,0,0.3,0,0.5-0.1c0.2,0,0.3-0.1,0.4-0.1
						l0,0v-1l0,0c-0.1,0-0.1,0.1-0.2,0.1c-0.1,0-0.2,0-0.2,0c-0.2,0-0.4-0.1-0.5-0.2c-0.1-0.1-0.2-0.3-0.2-0.6V97H253.7z"/>
					<rect x="199.4" y="91.8" class="st8" width="5.5" height="5.4"/>
					<rect x="205.5" y="91.8" class="st9" width="5.5" height="5.4"/>
					<rect x="199.4" y="97.9" class="st10" width="5.5" height="5.4"/>
					<rect x="205.5" y="97.9" class="st11" width="5.5" height="5.4"/>
				</g>
				<g>
					<path class="st3" d="M153.6,98.2v2.3h-0.7v-6h1.7c0.6,0,1.1,0.2,1.5,0.5c0.4,0.3,0.5,0.8,0.5,1.3c0,0.6-0.2,1-0.6,1.4
						c-0.4,0.4-0.9,0.5-1.6,0.5H153.6z M153.6,95.1v2.5h0.7c0.5,0,0.9-0.1,1.1-0.3s0.4-0.5,0.4-0.9c0-0.8-0.5-1.2-1.4-1.2H153.6z"/>
					<path class="st3" d="M159.1,100.6c-0.6,0-1.1-0.2-1.5-0.6c-0.4-0.4-0.6-0.9-0.6-1.6c0-0.7,0.2-1.3,0.6-1.7
						c0.4-0.4,0.9-0.6,1.6-0.6c0.6,0,1.1,0.2,1.5,0.6c0.4,0.4,0.5,0.9,0.5,1.6c0,0.7-0.2,1.2-0.6,1.7
						C160.3,100.4,159.8,100.6,159.1,100.6z M159.2,96.7c-0.4,0-0.8,0.2-1.1,0.5c-0.3,0.3-0.4,0.7-0.4,1.2c0,0.5,0.1,0.9,0.4,1.2
						c0.3,0.3,0.6,0.4,1,0.4c0.4,0,0.8-0.1,1-0.4c0.2-0.3,0.4-0.7,0.4-1.2c0-0.5-0.1-1-0.4-1.2C160,96.8,159.6,96.7,159.2,96.7z"/>
					<path class="st3" d="M167.8,96.2l-1.3,4.3h-0.7l-0.9-3.1c0-0.1-0.1-0.3-0.1-0.4h0c0,0.1,0,0.2-0.1,0.4l-1,3.1h-0.7l-1.3-4.3
						h0.7l0.9,3.2c0,0.1,0,0.2,0.1,0.4h0c0-0.1,0-0.3,0.1-0.4l1-3.2h0.6l0.9,3.3c0,0.1,0,0.2,0.1,0.4h0c0-0.1,0-0.2,0.1-0.4l0.9-3.3
						H167.8z"/>
					<path class="st3" d="M172.1,98.5h-3c0,0.5,0.1,0.9,0.4,1.1c0.2,0.3,0.6,0.4,1,0.4c0.5,0,0.9-0.2,1.3-0.5v0.6
						c-0.4,0.3-0.9,0.4-1.5,0.4c-0.6,0-1.1-0.2-1.4-0.6c-0.3-0.4-0.5-0.9-0.5-1.7c0-0.7,0.2-1.2,0.6-1.6c0.4-0.4,0.9-0.6,1.4-0.6
						s1,0.2,1.3,0.5c0.3,0.4,0.5,0.9,0.5,1.5V98.5z M171.4,97.9c0-0.4-0.1-0.7-0.3-0.9c-0.2-0.2-0.5-0.3-0.8-0.3
						c-0.3,0-0.6,0.1-0.8,0.3c-0.2,0.2-0.4,0.5-0.4,0.9H171.4z"/>
					<path class="st3" d="M175.4,96.9c-0.1-0.1-0.3-0.1-0.5-0.1c-0.3,0-0.5,0.1-0.7,0.4c-0.2,0.3-0.3,0.7-0.3,1.1v2.2h-0.7v-4.3h0.7
						v0.9h0c0.1-0.3,0.2-0.5,0.5-0.7c0.2-0.2,0.4-0.3,0.7-0.3c0.2,0,0.3,0,0.4,0.1V96.9z"/>
					<path class="st3" d="M179.6,98.5h-3c0,0.5,0.1,0.9,0.4,1.1c0.2,0.3,0.6,0.4,1,0.4c0.5,0,0.9-0.2,1.3-0.5v0.6
						c-0.4,0.3-0.9,0.4-1.5,0.4c-0.6,0-1.1-0.2-1.4-0.6c-0.3-0.4-0.5-0.9-0.5-1.7c0-0.7,0.2-1.2,0.6-1.6c0.4-0.4,0.9-0.6,1.4-0.6
						s1,0.2,1.3,0.5c0.3,0.4,0.5,0.9,0.5,1.5V98.5z M178.9,97.9c0-0.4-0.1-0.7-0.3-0.9c-0.2-0.2-0.5-0.3-0.8-0.3
						c-0.3,0-0.6,0.1-0.8,0.3c-0.2,0.2-0.4,0.5-0.4,0.9H178.9z"/>
					<path class="st3" d="M184.3,100.5h-0.7v-0.7h0c-0.3,0.6-0.8,0.8-1.5,0.8c-0.5,0-1-0.2-1.3-0.6s-0.5-0.9-0.5-1.6
						c0-0.7,0.2-1.3,0.5-1.7c0.4-0.4,0.8-0.6,1.4-0.6c0.6,0,1,0.2,1.3,0.7h0v-2.7h0.7V100.5z M183.6,98.6v-0.6
						c0-0.3-0.1-0.6-0.3-0.9c-0.2-0.2-0.5-0.4-0.9-0.4c-0.4,0-0.8,0.2-1,0.5c-0.2,0.3-0.4,0.7-0.4,1.3c0,0.5,0.1,0.9,0.3,1.2
						s0.5,0.4,0.9,0.4c0.4,0,0.7-0.1,0.9-0.4C183.5,99.3,183.6,99,183.6,98.6z"/>
					<path class="st3" d="M188.8,99.9L188.8,99.9l0,0.6h-0.7v-6.4h0.7V97h0c0.3-0.6,0.8-0.9,1.5-0.9c0.6,0,1,0.2,1.3,0.6
						c0.3,0.4,0.5,0.9,0.5,1.6c0,0.7-0.2,1.3-0.5,1.7c-0.4,0.4-0.8,0.7-1.4,0.7C189.5,100.6,189.1,100.4,188.8,99.9z M188.8,98.2
						v0.6c0,0.4,0.1,0.7,0.3,0.9c0.2,0.2,0.5,0.4,0.9,0.4c0.4,0,0.7-0.2,1-0.5c0.2-0.3,0.4-0.8,0.4-1.3c0-0.5-0.1-0.9-0.3-1.1
						c-0.2-0.3-0.5-0.4-0.9-0.4c-0.4,0-0.7,0.1-1,0.4C188.9,97.4,188.8,97.7,188.8,98.2z"/>
					<path class="st3" d="M196.6,96.2l-2,5c-0.4,0.9-0.9,1.3-1.5,1.3c-0.2,0-0.3,0-0.5-0.1v-0.6c0.1,0.1,0.3,0.1,0.4,0.1
						c0.3,0,0.6-0.2,0.8-0.6l0.3-0.8l-1.7-4.3h0.8l1.2,3.3c0,0,0,0.2,0.1,0.3h0c0-0.1,0-0.2,0.1-0.3l1.2-3.3H196.6z"/>
				</g>
			</g>
		</g>
		<g>
			<g>
				<path class="st3" d="M187.2,78.8c4.3-3.3,8.9-7,8.9-10.2c0-1-0.5-1.5-1.2-1.5c-0.7,0-1.3,0.7-1.2,2.5h-6.6
					c0.2-6,4.1-8.3,8.3-8.3c5.6,0,7.6,3.2,7.6,6.7c0,4.4-3.4,8.2-6.9,10.4h7V84h-15.9V78.8z"/>
				<path class="st3" d="M213.8,61.4c6.5,0,9.2,4.7,9.2,11.4c0,6.7-2.7,11.4-9.2,11.4c-6.5,0-9.2-4.7-9.2-11.4
					C204.6,66,207.3,61.4,213.8,61.4z M213.8,67.8c-2.2,0-2.5,2.1-2.5,4.9c0,2.8,0.3,5,2.5,5c2.2,0,2.5-2.1,2.5-5
					C216.3,69.9,216,67.8,213.8,67.8z"/>
				<path class="st3" d="M224.8,78.8c4.3-3.3,8.9-7,8.9-10.2c0-1-0.5-1.5-1.2-1.5c-0.7,0-1.3,0.7-1.2,2.5h-6.6
					c0.2-6,4.1-8.3,8.3-8.3c5.6,0,7.6,3.2,7.6,6.7c0,4.4-3.4,8.2-6.9,10.4h7V84h-15.9V78.8z"/>
				<path class="st3" d="M244.9,68.2h-3.3v-6.4H252v22.4h-7.1V68.2z"/>
			</g>
		</g>
		<g>
			<g>
				<path class="st3" d="M70.2,45.5h-6.2v8.1h-6.5V32.9h6.5v7.5h6.2v-7.5h6.5v20.7h-6.5V45.5z"/>
				<path class="st3" d="M92.9,50.5H86l-1,3.1h-6.8l7.6-20.7h7.5l7.5,20.7H94L92.9,50.5z M89.5,39.8l-1.9,5.8h3.7L89.5,39.8z"/>
				<path class="st3" d="M111.9,32.7c5.5,0,9.2,3.3,10,8.2h-6.8c-0.6-1.4-1.8-2.2-3.3-2.2c-2.2,0-3.5,1.8-3.5,4.5
					c0,2.7,1.3,4.5,3.5,4.5c1.5,0,2.7-0.8,3.3-2.2h6.8c-0.8,4.9-4.6,8.2-10,8.2c-6.3,0-10.2-4.4-10.2-10.5
					C101.7,37,105.6,32.7,111.9,32.7z"/>
				<path class="st3" d="M130.8,44.6v9h-6.5V32.9h6.5v8.7l5.9-8.7h7.3l-7.1,9.9l7.6,10.8h-7.7L130.8,44.6z"/>
				<path class="st3" d="M159.7,50.5h-6.9l-1,3.1h-6.8l7.6-20.7h7.5l7.5,20.7h-6.8L159.7,50.5z M156.2,39.8l-1.9,5.8h3.7L156.2,39.8
					z"/>
				<path class="st3" d="M167.8,32.9h17.4V38h-5.5v15.6h-6.5V38h-5.4V32.9z"/>
				<path class="st3" d="M199.7,45.5h-6.2v8.1H187V32.9h6.5v7.5h6.2v-7.5h6.5v20.7h-6.5V45.5z"/>
				<path class="st3" d="M219.2,53.8c-5.9,0-10.7-4.4-10.7-10.6c0-6.2,4.8-10.6,10.7-10.6c5.9,0,10.6,4.4,10.6,10.6
					C229.8,49.4,225,53.8,219.2,53.8z M219.2,47.7c2.6,0,4-1.8,4-4.6c0-2.8-1.4-4.6-4-4.6c-2.7,0-4.1,1.8-4.1,4.6
					C215.1,45.9,216.5,47.7,219.2,47.7z"/>
				<path class="st3" d="M252,32.9v20.7h-6.5l-6.9-10.4v10.4h-6.5V32.9h6.5l6.9,10.6V32.9H252z"/>
			</g>
		</g>
		<rect x="220" y="12" class="st12" width="13.3" height="13.3"/>
		<rect x="245.3" y="1.7" class="st13" width="16.9" height="16.9"/>
		<rect x="262.2" y="33.3" class="st14" width="26.1" height="26.1"/>
		<rect x="82.4" y="75.5" class="st15" width="25.5" height="25.5"/>
		<g>
			<g>
				<g>
					<path class="st3" d="M25.2,70.8h-9.7L0,55.5l15.5-15.3h9.7L9.6,55.5L25.2,70.8z"/>
				</g>
			</g>
		</g>
		<g>
			<g>
				<path class="st3" d="M274.2,88.9l-15.4-15.1h9.6l15.3,15.1l-15.3,15.1h-9.6L274.2,88.9z"/>
			</g>
		</g>
		<path class="st3" d="M48.5,18h7.6L37.8,93.4h-7.5L48.5,18z"/>
	</g>
</g>
</svg>
