<svg xmlns="http://www.w3.org/2000/svg" viewBox="0 0 241.54 241.54"><defs><style>.cls-1{fill:none;stroke:#ff096c;stroke-miterlimit:10;stroke-width:2px;}.cls-2{fill:#ff096c;}</style></defs><g id="Layer_2" data-name="Layer 2"><g id="HomeDesktop"><circle class="cls-1" cx="120.77" cy="120.77" r="119.77"/><path class="cls-2" d="M74.85,179.71h91.84a22.84,22.84,0,0,0,22.8-22.81v-69a22.82,22.82,0,0,0-22.8-22.8h-12V53.41h-8.28V65.07H95V53.41H86.72V65.07H74.85a22.82,22.82,0,0,0-22.8,22.8v69A22.83,22.83,0,0,0,74.85,179.71Zm91.81-8.29H74.85a14.66,14.66,0,0,1-14.63-14.63V101.12h121.1V156.9a14.66,14.66,0,0,1-14.63,14.63ZM74.85,73.24h12V80h8.29V73.24h51.41V80h8.28V73.24h12a14.66,14.66,0,0,1,14.63,14.63V93H60.22v-5A14.66,14.66,0,0,1,74.85,73.24Z"/></g></g></svg>