<svg xmlns="http://www.w3.org/2000/svg" viewBox="0 0 241.54 241.54"><defs><style>.cls-1{fill:none;stroke:#ff096c;stroke-miterlimit:10;stroke-width:2px;}.cls-2,.cls-3{fill:#ff096c;}.cls-2{fill-rule:evenodd;}</style></defs><g id="Layer_2" data-name="Layer 2"><g id="HomeDesktop"><circle class="cls-1" cx="120.77" cy="120.77" r="119.77"/><path class="cls-2" d="M145,65.3a3.48,3.48,0,0,1-3.47,3.47H86.1A17.33,17.33,0,0,0,68.77,86.1v69.34A17.33,17.33,0,0,0,86.1,172.77h55.47a3.47,3.47,0,0,1,0,6.94H86.1a24.28,24.28,0,0,1-24.27-24.27V86.1A24.28,24.28,0,0,1,86.1,61.83h55.47A3.47,3.47,0,0,1,145,65.3Z"/><path class="cls-3" d="M178.7,123.2a3.46,3.46,0,0,0,0-4.88L151,90.58a3.47,3.47,0,1,0-4.91,4.9l21.82,21.82h-61a3.47,3.47,0,0,0,0,6.94h61l-21.82,21.81A3.47,3.47,0,0,0,151,151l27.73-27.74"/></g></g></svg>