<svg xmlns="http://www.w3.org/2000/svg" viewBox="0 0 288.26 105.79"><defs><style>.cls-1{fill:#ff096c;}.cls-2{fill:#fff;}.cls-3{fill:#22aae4;}.cls-4{fill:#9269d3;}.cls-5{fill:#fccc00;}.cls-6{fill:#34d0a1;}</style></defs><g id="Layer_2" data-name="Layer 2"><g id="HomeDesktop"><g id="Logo"><path class="cls-1" d="M54.75,41.63H259.51L256.46,54H51.71Z"/><path class="cls-2" d="M70.23,43.77H64.05v8.08H57.56V31.14h6.49V38.6h6.18V31.14h6.49V51.85H70.23Z"/><path class="cls-2" d="M92.93,48.72H86l-1,3.13H78.18l7.58-20.71h7.49l7.55,20.71H94ZM89.48,38.07,87.6,43.83h3.75Z"/><path class="cls-2" d="M111.91,30.93c5.47,0,9.19,3.28,10,8.16H115.1a3.52,3.52,0,0,0-3.3-2.16c-2.2,0-3.54,1.78-3.54,4.53S109.6,46,111.8,46a3.51,3.51,0,0,0,3.3-2.17H122c-.85,4.89-4.57,8.17-10,8.17-6.35,0-10.24-4.36-10.24-10.54S105.56,30.93,111.91,30.93Z"/><path class="cls-2" d="M130.78,42.87v9h-6.49V31.14h6.49v8.71l5.94-8.71h7.34l-7.14,9.91,7.61,10.8h-7.72Z"/><path class="cls-2" d="M159.65,48.72h-6.9l-1,3.13h-6.81l7.58-20.71H160l7.55,20.71h-6.84ZM156.2,38.07l-1.87,5.76h3.74Z"/><path class="cls-2" d="M167.81,31.14h17.44v5.15h-5.5V51.85h-6.5V36.29h-5.44Z"/><path class="cls-2" d="M199.67,43.77H193.5v8.08H187V31.14h6.5V38.6h6.17V31.14h6.5V51.85h-6.5Z"/><path class="cls-2" d="M219.18,52.05a10.63,10.63,0,1,1,0-21.26A10.36,10.36,0,0,1,229.8,41.41,10.42,10.42,0,0,1,219.18,52.05Zm0-6c2.61,0,4-1.84,4-4.59s-1.43-4.63-4-4.63-4.06,1.82-4.06,4.63S216.52,46,219.18,46Z"/><path class="cls-2" d="M252,31.14V51.85h-6.49l-6.87-10.42V51.85h-6.5V31.14h6.5l6.87,10.59V31.14Z"/><path class="cls-2" d="M76.84,59.27h8l4.57,12.44L93.8,59.27h7.93V80H95.27V69.66L92.08,80H86.52L83.33,69.66V80H76.84Z"/><path class="cls-2" d="M104.65,59.27h6.5V80h-6.5Z"/><path class="cls-2" d="M123.73,59.07c5.47,0,9.18,3.28,10,8.16h-6.84a3.54,3.54,0,0,0-3.31-2.16c-2.19,0-3.54,1.78-3.54,4.53s1.35,4.54,3.54,4.54A3.54,3.54,0,0,0,126.92,72h6.84c-.85,4.89-4.56,8.16-10,8.16-6.35,0-10.24-4.36-10.24-10.53S117.38,59.07,123.73,59.07Z"/><path class="cls-2" d="M145.76,59.27c5.2,0,7.86,3,7.86,6.79a6.1,6.1,0,0,1-4.47,6l4.5,7.93h-7.13l-3.9-7.43h0V80h-6.5V59.27Zm-.59,5.45H142.6v3.51h2.57c1.23,0,1.87-.53,1.87-1.76A1.66,1.66,0,0,0,145.17,64.72Z"/><path class="cls-2" d="M165.79,80.19a10.64,10.64,0,1,1,10.62-10.65A10.45,10.45,0,0,1,165.79,80.19Zm0-6c2.61,0,4-1.85,4-4.6s-1.43-4.62-4-4.62-4.06,1.81-4.06,4.62S163.13,74.14,165.79,74.14Z"/><path class="cls-2" d="M186.86,80.19c-4.74,0-8.46-2.19-8.75-6.84H185c.12,1.52.94,1.78,1.58,1.78s1.26-.29,1.26-1c0-2.81-9.8-1.79-9.68-8.87,0-4.15,3.51-6.32,7.92-6.32,5,0,8.23,2.4,8.4,6.7h-7c-.06-1.26-.73-1.64-1.43-1.64a.93.93,0,0,0-.94,1.06c0,2.6,9.62,2.16,9.62,8.54C194.75,77.38,191.86,80.19,186.86,80.19Z"/><path class="cls-2" d="M207.13,80.19a10.64,10.64,0,1,1,10.62-10.65A10.46,10.46,0,0,1,207.13,80.19Zm0-6c2.6,0,4-1.85,4-4.6s-1.44-4.62-4-4.62-4.07,1.81-4.07,4.62S204.47,74.14,207.13,74.14Z"/><path class="cls-2" d="M220.09,59.27h14.62v5.15h-8.13v2.87h5.85v4.89h-5.85V80h-6.49Z"/><path class="cls-2" d="M235.74,59.27h17.43v5.15h-5.5V80h-6.49V64.42h-5.44Z"/><path class="cls-2" d="M190.13,100.62c4.13-3.1,8.49-6.7,8.49-9.77,0-.94-.44-1.47-1.11-1.47s-1.29.7-1.17,2.43h-6.29c.2-5.67,3.89-7.87,7.89-7.87,5.33,0,7.23,3,7.23,6.41,0,4.24-3.22,7.78-6.61,9.92h6.7v5.23H190.13Z"/><path class="cls-2" d="M215.58,83.94c6.18,0,8.78,4.45,8.78,10.85s-2.6,10.89-8.78,10.89-8.77-4.45-8.77-10.89S209.38,83.94,215.58,83.94Zm0,6.14c-2.13,0-2.39,2-2.39,4.71s.26,4.74,2.39,4.74,2.37-2,2.37-4.74S217.69,90.08,215.58,90.08Z"/><path class="cls-2" d="M226.06,100.62c4.12-3.1,8.48-6.7,8.48-9.77,0-.94-.44-1.47-1.11-1.47s-1.29.7-1.17,2.43H226c.2-5.67,3.89-7.87,7.9-7.87,5.32,0,7.22,3,7.22,6.41,0,4.24-3.21,7.78-6.61,9.92h6.7v5.23H226.06Z"/><path class="cls-2" d="M245.19,90.49h-3.1V84.41H252v21.38h-6.81Z"/><path class="cls-2" d="M25.21,69.05H15.5L0,53.75,15.5,38.46h9.71L9.64,53.75Z"/><path class="cls-2" d="M274.18,90,258.79,74.89h9.59L283.7,90l-15.32,15.12h-9.59Z"/><rect class="cls-3" x="262.2" y="31.53" width="26.07" height="26.07"/><rect class="cls-4" x="245.25" width="16.94" height="16.94"/><rect class="cls-5" x="220.05" y="10.25" width="13.29" height="13.29"/><rect class="cls-6" x="50.23" y="83.94" width="21.68" height="21.68"/><path class="cls-2" d="M48.55,16.05h7.61L37.83,91.46H30.28Z"/></g></g></g></svg>